# xmcd
#
# Track frame offsets: 
#        300
#        12406
#        33560
#        48469
#        63209
#        78376
#        91722
#        109081
#        114241
#        134347
#        147801
#        161362
#        176474
#        193811
#        211413
#        229524
#
# Disc length: 3341 seconds
#
# Revision: 1
# Processed by: cddbd v1.5.2PL0 Copyright (c) Steve Scherf et al.
# Submitted via: ExactAudioCopy v1.0b1
#
DISCID=ce0d0910
DTITLE=Blueass Blues Band - Breakin' Through 320
DYEAR=1994
DGENRE=General Blues
TTITLE0=38 Special Blues
TTITLE1=Parchman Farm
TTITLE2=Buffalo Jump
TTITLE3=It's Allright
TTITLE4=All I've Got Left Is The Blues
TTITLE5=Do The Boogie
TTITLE6=Wait On Time
TTITLE7=Intermission
TTITLE8=Blues By The Hand
TTITLE9=Once I Had A Woman
TTITLE10=Barefootin'
TTITLE11=Empty Arms
TTITLE12=T-Bone Shuffle
TTITLE13=Down The Road
TTITLE14=Talk To Me Baby
TTITLE15=Just One More (When I Woke Up This Morning Blues)
EXTD=
EXTT0=
EXTT1=
EXTT2=
EXTT3=
EXTT4=
EXTT5=
EXTT6=
EXTT7=
EXTT8=
EXTT9=
EXTT10=
EXTT11=
EXTT12=
EXTT13=
EXTT14=
EXTT15=
PLAYORDER=
